<svg width="101" height="85" viewBox="0 0 101 85" fill="none" xmlns="http://www.w3.org/2000/svg">
<g clip-path="url(#clip0_2576_84)">
<path d="M2.73158 56.4629H4.83149L5.11454 56.4055L5.34021 56.3482L5.56589 56.2334L5.79538 56.0039L5.85276 55.8356L5.91013 55.4952L5.85276 55.2734L5.73801 54.9368L5.62326 54.822L5.45496 54.7073L5.22929 54.6499L4.72057 54.5925H2.73158V56.4629ZM2.73158 60.3759H5.11454L5.39759 60.3185L5.62326 60.2038L5.95986 59.8671L6.07461 59.6415L6.13198 59.4158L6.18936 59.1327L6.07461 58.5667L5.95986 58.341L5.84511 58.1727L5.39376 57.9432L5.16809 57.8858H2.73158V60.3759ZM1.14422 61.8485V53.0625H4.88886L5.45496 53.1199L6.02106 53.2346L6.47623 53.403L6.87402 53.686L7.21445 54.0264L7.44012 54.4242L7.55487 54.8794L7.61224 55.3881L7.55487 55.6138L7.49749 55.8968L7.44012 56.1225L7.32537 56.4055L7.15707 56.5739L6.98877 56.7995L6.82048 56.9678L6.5948 57.0826L6.9926 57.3082L7.21827 57.4765L7.44394 57.7022L7.61224 57.9279L7.78054 58.2683L7.83792 58.6087L7.89529 59.0639L7.83792 59.6874L7.66962 60.2535L7.44394 60.7086L7.10352 61.1064L6.64835 61.4469L6.13963 61.6725L5.51616 61.7873L4.83532 61.8447L1.14422 61.8485ZM11.07 61.9632L10.7296 61.9059L10.4465 61.8485L10.1635 61.6802L9.93783 61.5654L9.76953 61.3398L9.4291 60.942L9.20343 60.4868L9.08868 59.9781L9.03131 59.5229V55.4378H10.6187V59.3508L10.676 59.6912L10.9055 60.1425L11.0777 60.3109L11.246 60.4256L11.529 60.5403H12.0377L12.3208 60.4256L12.4891 60.3109L12.6612 60.1425L12.8295 59.9169L12.8869 59.6912L13.0016 59.0104V55.4378H14.5316V61.8447H13.0016V61.3359L12.6612 61.619L12.3208 61.8447L11.8656 61.9594L11.4104 62.0168L11.07 61.9632ZM35.5766 61.8485V57.9355L35.5192 57.6525L35.4045 57.3694L35.2897 57.1438L35.1214 56.9755L34.9493 56.8607L34.6663 56.8033L34.4406 56.746L33.8745 56.8607L33.7062 56.9755L33.5379 57.1438L33.3658 57.3694L33.251 57.6525L33.1936 57.9355V61.8485H31.6063V55.4417H33.1936V56.0078L33.5341 55.6673L34.3297 55.3307H35.3509L35.8061 55.499L36.2039 55.7247L36.5443 56.0651L36.8274 56.4629L36.9957 56.9716L37.1104 57.5378L37.1678 58.2186V61.8485H35.5766ZM16.0042 55.4417H17.5916V61.8485H16.0042V55.4417ZM18.9533 61.8485V53.5712L20.5406 52.7757V61.8485H18.9533ZM24.2853 56.8033L23.8339 56.9181L23.6656 57.0864L23.4973 57.3121L23.3826 57.6525L23.3252 58.0503L23.2678 58.559L23.3252 59.1251L23.3826 59.5803L23.4973 59.9207L23.6656 60.1464L23.8913 60.3147L24.0596 60.4294L24.2853 60.5442H24.511L24.8514 60.4868L25.1918 60.3185L25.4175 60.1502L25.5858 59.9245V57.3733L25.1918 56.9793L24.8514 56.811L24.4536 56.7536L24.2853 56.8033ZM23.6044 61.9632L23.0957 61.7949L22.6979 61.5119L22.3001 61.1103L22.0171 60.6015L21.8488 60.0355L21.734 59.3546L21.6767 58.6164L21.734 57.8782L21.8488 57.1973L22.0745 56.6886L22.3575 56.1799L22.6979 55.8395L23.1531 55.5564L23.6083 55.3881L24.1744 55.3307H24.5722L24.97 55.4455L25.3104 55.6138L25.5934 55.8968V53.5712L27.1808 52.7795V61.8523H25.5934V61.3971L24.9126 61.8485L24.5722 61.9632L24.1744 62.0206L23.6044 61.9632ZM59.5706 56.8033L59.2302 56.9181L59.0045 57.1438L58.7789 57.4268V59.9207L59.1728 60.3147L59.5132 60.483L59.6815 60.5403H59.9072L60.1903 60.483L60.4159 60.4256L60.6416 60.2573L60.8099 60.0316L60.9247 59.7486L60.982 59.4081L61.0394 59.0104L61.0968 58.5552L61.0394 58.1L60.982 57.7022L60.8673 57.4192L60.699 57.1361L60.5307 56.9678L60.305 56.8531L60.0793 56.7957L59.911 56.7383L59.5706 56.8033ZM59.7963 61.9632L59.3985 61.8485L59.0581 61.6228L58.775 61.3971V61.8523H57.1877V53.7434L58.775 52.9478V55.8968L59.0581 55.6712L59.4559 55.4455L59.7963 55.3307H60.1941L60.7602 55.3881L61.2154 55.5564L61.6705 55.8395L62.011 56.1799L62.294 56.6886L62.5197 57.1973L62.6344 57.8782L62.6918 58.6164L62.6344 59.3546L62.5197 60.0355L62.3514 60.6015L62.0683 61.1103L61.6705 61.5081L61.2727 61.7911L60.764 61.9594L60.1979 62.0168L59.7963 61.9632ZM40.6256 56.8033L40.3999 56.9181L40.2316 57.0864L40.0595 57.3121L39.9447 57.6525L39.8873 58.0503L39.83 58.559L39.8873 59.1251L39.9447 59.5229L40.0595 59.9207L40.2316 60.1464L40.3999 60.3147L40.8512 60.5442H41.0195L41.4173 60.4868L41.9834 60.1502L42.1517 59.9245V57.3733L41.9834 57.1476L41.7577 56.9793L41.4173 56.811L41.0195 56.7536H40.7938L40.6256 56.8033ZM40.0556 63.2102H40.113L40.7938 63.1528L41.3026 63.038L41.643 62.8698L41.926 62.6441L42.1555 62.078V61.3971L41.4747 61.8485L41.1343 61.9632L40.6791 62.0206L40.1704 61.9632L39.6617 61.7375L39.2639 61.4545L38.8661 61.1141L38.583 60.6054L38.4147 60.0393L38.2464 59.3584V57.882L38.4147 57.2011L38.583 56.635L38.9234 56.1799L39.2639 55.7821L39.719 55.5564L40.1742 55.3881L40.7403 55.3307H41.1381L41.5359 55.4455L41.8763 55.6712L42.1594 55.8968V55.4417H43.7467V61.2824L43.6894 62.0206L43.5746 62.6441L43.2916 63.2102L43.1768 63.4358L42.7828 63.8298L42.5572 63.9981L41.9911 64.2238L41.3676 64.3921L40.6294 64.4495L40.0556 63.2102ZM49.7558 58.8994L49.5875 58.9568L49.4192 59.0716L49.3044 59.1863L49.1897 59.3546L49.1323 59.5229V59.9169L49.1897 60.1425L49.3044 60.3109L49.4192 60.4256L49.5875 60.5403L49.7558 60.5977L50.2071 60.7125L50.6049 60.6551L51.0027 60.4868L51.454 60.0355V59.1289L50.8879 58.8994L50.5475 58.8421H49.9814L49.7558 58.8994ZM49.4727 61.9632L49.0749 61.9059L48.6771 61.7375L48.3367 61.5119L47.9963 61.1715L47.7706 60.7737L47.6023 60.3185L47.5449 59.7524L47.6023 59.1863L47.7706 58.7311L48.0536 58.3907L48.3941 58.1077L48.7919 57.882L49.1897 57.7672L49.6448 57.6525H50.4404L50.8382 57.7099L51.1786 57.8246L51.4617 57.9394V57.3159L51.4043 57.0902L51.2896 56.9219L51.1748 56.8072L51.0065 56.6924L50.7808 56.635L50.3257 56.5777L49.4153 56.6924L49.0175 56.8607L48.6771 57.029L48.0536 55.9504L48.6197 55.6673L49.1858 55.4417L49.8093 55.3269H50.9989L51.5076 55.4417L51.9628 55.6673L52.3606 55.893L52.6436 56.2334L52.8693 56.5739L52.984 57.029L53.0414 57.5378V61.8485H51.454V61.3398L51.1136 61.6228L50.6584 61.8485L50.2607 61.9632L49.9202 62.0206L49.4727 61.9632ZM66.0922 56.6886L65.8665 56.746L65.6408 56.8607L65.4725 57.029L65.3578 57.1973L65.243 57.423L65.1283 57.706V57.9891H67.5113L67.4539 57.4804L67.3391 57.2547L67.2244 57.0864L67.0561 56.9181L66.8304 56.7498L66.6047 56.6924L66.3217 56.635L66.0922 56.6886ZM65.8665 61.9632L65.243 61.7375L64.7343 61.4545L64.3365 61.1141L63.9387 60.6054L63.7131 60.0393L63.5448 59.4158L63.4874 58.6776L63.5448 57.9394L63.7131 57.3159L63.9387 56.7498L64.2792 56.2411L64.7343 55.8433L65.1895 55.5602L65.7556 55.3919L66.3791 55.3346L66.9452 55.3919L67.4539 55.5602L67.9091 55.8433L68.3069 56.2411L68.6473 56.6962L68.8729 57.2623L68.9877 57.9432L69.0451 58.6814V59.1366H65.0748L65.1895 59.5918L65.3043 59.9322L65.6982 60.3261L65.9813 60.4409L66.1496 60.4983L66.5474 60.5556L66.9452 60.4983L67.2856 60.3835L67.5686 60.2152L67.7943 59.9896L68.8156 61.0108L68.5325 61.2365L68.3069 61.4622L68.0238 61.6304L67.7408 61.7452L67.1747 61.9709L66.5512 62.0283L65.8665 61.9632ZM81.3538 56.6886L81.1282 56.746L80.9599 56.8607L80.6233 57.1973L80.5085 57.423L80.4511 57.706V57.9891H82.8341L82.7193 57.4804L82.662 57.2547L82.5472 57.0864L82.3789 56.9181L82.1532 56.7498L81.9276 56.6924L81.6445 56.635L81.3538 56.6886ZM81.1817 61.9632L80.5582 61.7375L80.0495 61.4545L79.5943 61.1141L79.2539 60.6054L78.9709 60.0393L78.8561 59.4158L78.7987 58.6776L78.8561 57.9394L78.9709 57.3159L79.2539 56.7498L79.5943 56.2411L79.9921 55.8433L80.5009 55.5602L81.0669 55.3919L81.633 55.3346L82.2565 55.3919L82.7652 55.5602L83.2204 55.8433L83.6182 56.2411L83.9013 56.6962L84.1269 57.2623L84.2952 57.9432L84.3526 58.6814V59.1366H80.3823L80.4397 59.5918L80.608 59.9322L80.7763 60.1578L81.0019 60.3261L81.2276 60.4409L81.4533 60.4983L81.7937 60.5556L82.1915 60.4983L82.5319 60.3835L82.815 60.2152L83.098 59.9896L84.0619 61.0108L83.8362 61.2365L83.5532 61.4622L83.3275 61.6304L83.0445 61.7452L82.421 61.9709L81.7975 62.0283L81.1817 61.9632ZM76.3049 61.9594L75.9071 61.7911L75.624 61.6228L75.3983 61.3398L75.23 61.0567L75.1153 60.7163L75.0005 60.0355V56.9181H74.0367V55.4455H75.0005V53.8007L76.5879 53.0052V55.4417H78.0643V56.9143H76.5879V59.6338L76.6453 60.0316L76.76 60.2573L76.8748 60.372L76.9895 60.4294L77.2726 60.4868H77.5556L77.7813 60.4294L78.2365 60.2038L78.0682 61.6764L77.7851 61.8447L77.1043 61.9594L76.7065 62.0168L76.3049 61.9594ZM71.7646 61.9594L71.3668 61.7911L71.0838 61.6228L70.8581 61.3398L70.686 61.0567L70.5712 60.7163L70.4565 60.0355V56.9181H69.4926V55.4455H70.4565V53.8007L72.0438 53.0052V55.4417H73.4055V56.9143H72.0438V59.6338L72.1012 60.0316L72.216 60.2573L72.3307 60.372L72.4455 60.4294L72.7285 60.4868H73.0116L73.2372 60.4294L73.6924 60.2038L73.5241 61.6764L73.2411 61.8447L72.5602 61.9594L72.1624 62.0168L71.7646 61.9594ZM85.3815 61.8485V55.4417H86.9689V56.0078L87.2519 55.6673L87.5923 55.499L87.9901 55.3307H88.671L89.0114 55.3881L89.2945 55.5564L89.5775 55.6712L89.1223 57.2585L88.8967 57.0902L88.671 56.9755L88.3879 56.9181H87.8218L87.5962 56.9755L87.4279 57.0902L87.2596 57.2585L87.0301 57.7099L86.9727 58.0503V61.8485H85.3815ZM16.0042 52.9478H17.5916V54.5351H16.0042V52.9478ZM28.5998 55.4417H30.1872V61.8485H28.5998V55.4417ZM28.5998 52.9478H30.1872V54.5351H28.5998V52.9478ZM72.1624 68.0258L71.9941 68.1406L71.8258 68.3089L71.6575 68.5345L71.5428 68.8176L71.428 69.2727V70.294L71.5428 70.7492L71.6575 71.0896L71.8258 71.3727L71.9941 71.541L72.2198 71.6557L72.3919 71.7131H73.0154L73.2984 71.5448L73.7498 71.0934V68.5995L73.5815 68.3739L73.0154 68.0373L72.6176 67.9799H72.3919L72.1624 68.0258ZM72.2772 73.1857L71.7111 73.1283L71.2559 72.96L70.8007 72.677L70.4603 72.2792L70.1773 71.824L69.9516 71.2005L69.8368 70.5771L69.7795 69.7815L69.8368 69.0433L69.9516 68.4198L70.1773 67.8537L70.4603 67.3985L70.8007 67.0007L71.2559 66.7177L71.7646 66.5494L72.3307 66.492L72.6711 66.5494L73.0689 66.6641L73.4094 66.8324L73.7498 67.1155V64.7899L75.3371 63.9981V73.0709H73.7498V72.5622L73.4094 72.8453L73.0116 73.0709L72.6711 73.1857H72.2772ZM16.119 73.0709V66.6641H17.7063V67.2302L17.9894 66.8898L18.3298 66.6641L18.6702 66.5494L19.1254 66.492L19.4084 66.5494L19.7489 66.6067L20.0319 66.7215L20.315 66.8898L19.8598 68.4198L19.6341 68.305L19.3511 68.1903L19.1254 68.1329L18.8424 68.0755L18.5593 68.1329L18.3336 68.1903L18.108 68.305L17.9932 68.4733L17.8249 68.6416L17.7102 69.2077V73.0633H16.119V73.0709ZM5.79538 73.0709L5.11454 70.4049L4.71674 68.9859L4.37632 70.4585L3.69547 73.0671H2.33379L2.27641 73.0097L0.578125 66.8821V66.6565H2.10429L2.72776 69.0394L3.01081 70.6268L3.23648 69.7776L3.4086 68.982L4.08945 66.6565H5.45114L6.07461 68.982L6.4724 70.6268L6.81283 68.982L7.37892 66.6565H8.96628L7.14942 73.0633H5.79538V73.0709ZM11.6935 68.1406L11.2421 68.4772L11.1274 68.7602L11.0126 69.1006L10.9553 69.441L10.8979 69.8389L11.0126 70.6344L11.2421 71.2005L11.4678 71.4262L11.6935 71.5945L11.9192 71.6519L12.2022 71.7092L12.4853 71.6519L12.7109 71.5945L12.9366 71.4262L13.1623 71.2005L13.3918 70.6344L13.5065 70.2366V69.441L13.277 68.7602L13.1623 68.4772L12.7109 68.1406L12.4853 68.0258H11.9192L11.6935 68.1406ZM11.5787 73.1283L11.0126 72.96L10.5575 72.677L10.1023 72.2792L9.76188 71.7704L9.47883 71.2044L9.36408 70.5809L9.30671 69.8427L9.36408 69.1618L9.47883 68.5384L9.76188 67.9149L10.1023 67.4597L10.5575 67.0619L11.0126 66.7789L11.5787 66.5532L12.2022 66.4958L12.8257 66.5532L13.3918 66.7789L13.8469 67.0619L14.3021 67.4597L14.6425 67.9149L14.9256 68.5384L15.0403 69.1618L15.0977 69.8427L15.0403 70.5809L14.9256 71.2044L14.6425 71.7704L14.3021 72.2792L13.8469 72.677L13.3918 72.96L12.8257 73.1283L12.2022 73.1857L11.5787 73.1283ZM62.1219 73.0709V66.6641H63.7092V67.2302L64.0497 66.8898L64.3901 66.6641L64.7305 66.5494L65.1283 66.492L65.8092 66.6067L66.0922 66.7215L66.3179 66.8898L65.9201 68.4198L65.6944 68.305L65.4114 68.1903L64.8453 68.0755L64.3939 68.1903L64.1682 68.305L63.9999 68.4733L63.8852 68.6416L63.7704 69.2077L63.7131 69.6055V73.0633H62.1219V73.0709ZM51.8557 73.0709L51.1174 70.4049L50.777 68.9859L50.4366 70.4585L49.6984 73.0671H48.3367V73.0097L46.5198 66.6603H48.1646L48.7307 69.0433L49.0711 70.6306L49.2394 69.7815L49.4651 68.9859L50.1459 66.6603H51.4502L52.1311 68.9859L52.5289 70.6306L52.8693 68.9859L53.4354 66.6603H55.0227L53.2059 73.0671L51.8557 73.0709ZM57.7002 68.1406L57.4745 68.3089L57.3062 68.4772L57.1379 68.7602L57.0232 69.1006L56.9658 69.441V70.2366L57.0232 70.6344L57.1379 70.9175L57.3062 71.2005L57.4745 71.4262L57.7002 71.5945L58.2663 71.7092L58.5494 71.6519L58.775 71.5945L59.0007 71.4262L59.1728 71.2005L59.3411 70.9175L59.4559 70.6344L59.5132 70.2366V69.441L59.4559 69.1006L59.3411 68.7602L59.1728 68.4772L59.0007 68.3089L58.775 68.1406L58.5494 68.0258H57.9833L57.7002 68.1406ZM57.6428 73.1283L57.0767 72.96L56.568 72.677L56.1702 72.2792L55.8298 71.7704L55.5468 71.2044L55.3746 70.5809L55.3173 69.8427L55.3746 69.1618L55.5468 68.5384L55.8298 67.9723L56.1702 67.4635L56.568 67.0657L57.0767 66.7827L57.6428 66.557L58.2663 66.4996L58.8324 66.557L59.3985 66.7827L59.9072 67.0657L60.305 67.4635L60.7028 67.9723L60.9285 68.5384L61.0968 69.1618L61.1542 69.8427L61.0968 70.5809L60.9285 71.2044L60.7028 71.7704L60.305 72.2792L59.9072 72.677L59.3985 72.96L58.8324 73.1283L58.2663 73.1857L57.6428 73.1283ZM24.7978 73.0709L23.4361 70.0645L22.6405 71.1432V73.0709H21.0532V64.7937L22.6405 63.9981V69.1006L23.2066 68.305L24.4536 66.6603H26.324L24.6219 68.7564L26.5497 73.0671L24.7978 73.0709ZM34.498 73.0709V69.158L34.4406 68.8176L34.3258 68.5345L34.2111 68.3662L34.0428 68.1979L33.8707 68.0832L33.645 67.9684H33.0789L32.7958 68.0832L32.6275 68.1979L32.4592 68.3662L32.2909 68.5919L32.2336 68.8176L32.1188 69.4984V73.0709H30.5315V66.6641H32.1188V67.1728L32.4592 66.8898L32.857 66.6641L33.2548 66.5494L33.7636 66.492L34.2723 66.5494L34.781 66.7177L35.1788 66.9433L35.5192 67.2264L35.7449 67.6816L35.9132 68.1903L36.0279 68.7564L36.0853 69.4372V73.0671H34.498V73.0709ZM39.5469 68.0258L39.3212 68.1406L39.1529 68.3089L38.9808 68.5345L38.8661 68.8176L38.7513 69.7279L38.8087 70.294L38.8661 70.7492L38.9808 71.0896L39.1529 71.3727L39.3786 71.541L39.5469 71.6557L39.7726 71.7131H40.3387L40.6217 71.5448L40.9048 71.3191L41.0731 71.0934V68.5995L40.9048 68.3739L40.6791 68.2056L40.3387 68.0373L39.9409 67.9799H39.7726L39.5469 68.0258ZM38.9808 74.4326H39.0382L39.719 74.3753L40.2278 74.2605L40.5682 74.0348L40.8512 73.8092L40.966 73.5835L41.0807 73.3004V72.566L40.7977 72.8491L40.3999 73.0174L40.0595 73.1857H39.6617L39.0956 73.1283L38.5868 72.96L38.189 72.677L37.7913 72.2792L37.5082 71.824L37.3399 71.2005L37.2252 70.5197L37.1678 69.7815L37.2252 69.0433L37.3399 68.4198L37.5656 67.8537L37.8486 67.3985L38.189 67.0007L38.6442 66.7177L39.0994 66.5494L39.6655 66.492L40.0633 66.5494L40.4611 66.6641L40.8015 66.8324L41.0846 67.1155V66.6603H42.6719V72.4436L42.6145 73.1819L42.4998 73.8627L42.2741 74.4288L42.1058 74.6545L41.7118 75.0485L41.4862 75.2168L40.9201 75.4424L40.2966 75.6107L39.5584 75.6681L38.9808 74.4326ZM27.5212 66.6641H29.1086V73.0709H27.5212V66.6641ZM27.5212 64.1702H29.1086V65.7576H27.5212V64.1702ZM67.1135 73.0709V64.7937L68.7008 63.9981V73.0709H67.1135ZM1.14422 44.2689V8.21094H21.6231L26.389 16.4882H11.9192V22.4398H25.0235V30.0362H11.9192V35.9879H30.0151V44.2651H1.14422V44.2689ZM48.3941 44.2689V30.04L61.0432 8.21094H49.1858L43.0582 20.0033L36.988 8.21094H25.0235L37.6153 30.04V44.2689H48.3941Z" fill="#666666"/>
</g>
<defs>
<clipPath id="clip0_2576_84">
<rect width="100" height="85" fill="white" transform="translate(0.5)"/>
</clipPath>
</defs>
</svg>
