<svg width="101" height="67" viewBox="0 0 101 67" fill="none" xmlns="http://www.w3.org/2000/svg">
<g clip-path="url(#clip0_2576_76)">
<path d="M70.7755 2.51674C74.4077 0.73281 76.2077 0.966912 76.2482 2.77511C76.2967 5.12404 75.9495 8.24768 75.6992 10.5079C74.3512 22.7923 72.0991 32.8303 71.9296 45.4433C77.8624 30.0843 82.8346 19.4094 89.2436 6.2621C91.2778 2.0728 92.5773 2.85583 94.248 2.11316C100.754 -0.784554 100.996 0.991188 100.148 4.53477C96.9925 17.6595 88.9125 58.9836 87.6778 65.3467C87.3225 67.1877 85.3208 66.4073 84.8041 65.6873C82.4876 62.4828 79.8724 62.4327 80.1628 60.3018C81.6158 49.693 86.8462 23.0756 88.2105 16.8038C81.2605 31.0521 74.0525 48.8641 70.3475 58.9635C69.5645 61.1081 68.1358 60.9508 67.248 59.3816C65.9968 57.1773 63.5672 56.052 63.1635 53.4472C61.8963 45.1657 64.6166 29.3805 64.9958 19.394C61.2103 30.303 54.8578 51.4825 52.0729 61.0515C50.9268 65.0108 47.1007 64.365 48.1177 60.506C52.3472 44.4472 61.4605 16.045 65.3995 5.83426C66.3281 3.42874 68.7575 3.50945 70.7755 2.51674Z" fill="#666666"/>
<path d="M47.7072 0.547005C46.4804 0.248414 42.9206 2.1695 40.7331 2.54881C40.039 2.66988 39.3771 3.40436 39.143 3.92916C35.6397 11.9767 32.4999 19.6481 29.7797 26.6366C26.3007 27.2307 22.2327 28.0129 17.6802 29.0355C20.9411 20.6707 24.2345 12.4205 27.447 4.48598C29.029 0.579178 24.8641 0.207921 23.2496 4.16312C21.1509 9.30492 17.22 18.9386 12.8692 30.1672C9.67278 30.9509 6.28272 31.8468 2.73914 32.8705C0.164148 33.6138 0.0593475 34.2999 1.17328 35.8441C1.78669 36.7039 3.05398 36.6172 3.63507 37.2299C5.13649 38.8177 6.04862 40.7169 8.73636 41.0044C6.33902 47.4173 3.94172 54.0306 1.77045 60.3984C0.40633 64.3955 4.28881 65.2131 5.78219 60.9834C8.18757 54.1652 10.7221 47.2646 13.3293 40.3843C15.5006 39.8797 20.7552 38.748 25.6064 37.6955C21.7561 48.2485 19.2215 56.263 18.2611 60.1641C18.0836 60.9147 18.3821 61.3313 18.5436 61.6372C19.8431 63.5284 21.0781 63.6058 22.749 65.9442C23.2011 66.5819 24.7186 66.9258 25.2351 65.3558C28.8028 54.5791 32.4755 44.4677 35.8979 35.403C37.3184 35.0922 39.8772 34.4747 41.4431 32.1379C44.2278 27.9906 45.0269 28.8317 45.697 27.5709C46.5365 25.988 45.9794 24.502 43.0092 24.8692C43.0092 24.8692 41.8872 24.949 39.8127 25.1856C43.1059 16.7062 45.9875 9.51419 48.062 4.03358C48.7727 2.17754 48.8615 0.821466 47.7072 0.547005Z" fill="#666666"/>
<path d="M42.8485 55.5432C43.6153 57.4812 46.0126 56.8944 45.1005 54.5553C44.1721 52.1724 41.8637 44.999 41.2582 42.688C40.4349 39.574 44.0026 40.4256 42.1945 42.4614C40.6449 44.212 39.6115 44.9135 36.7461 48.2423C33.9775 51.4557 34.7282 55.6256 37.6906 56.5467C41.0322 57.5862 43.9785 53.9039 45.8027 51.2024C47.5704 48.5863 45.8591 47.0519 44.0753 48.5985C42.929 49.5929 41.6053 51.12 40.2653 51.9433C39.1756 52.606 38.32 51.8941 39.773 49.894C41.46 47.5782 43.3487 45.6378 44.7532 43.4495C47.6188 38.9898 41.9523 36.419 39.5146 39.3159C38.2069 40.8601 38.5379 42.376 38.8931 43.6771C39.4663 45.7611 41.5973 52.414 42.8485 55.5432Z" fill="#666666"/>
</g>
<defs>
<clipPath id="clip0_2576_76">
<rect width="100" height="65.9684" fill="white" transform="translate(0.5 0.515625)"/>
</clipPath>
</defs>
</svg>
