<svg width="101" height="25" viewBox="0 0 101 25" fill="none" xmlns="http://www.w3.org/2000/svg">
<g clip-path="url(#clip0_2576_78)">
<path d="M65.2774 9.1179C63.5943 7.59714 61.5623 6.85375 59.2132 6.85375C56.8962 6.85375 54.8641 7.59809 53.1802 9.1179C51.4972 10.6056 50.6415 12.6764 50.6415 15.3292C50.6415 17.982 51.4972 20.0509 53.1802 21.5717C54.8632 23.0594 56.8962 23.8037 59.2132 23.8037C61.5623 23.8037 63.5943 23.0594 65.2774 21.5717C66.9924 20.0509 67.8481 17.9811 67.8481 15.3292C67.8481 12.6773 66.9915 10.6056 65.2774 9.1179ZM56.0396 18.7245C55.1519 17.8519 54.7047 16.7188 54.7047 15.3283C54.7047 13.9377 55.1481 12.8056 56.0396 11.9641C56.453 11.5445 56.9475 11.2134 57.4929 10.9911C58.0383 10.7687 58.6233 10.6597 59.2123 10.6707C59.8061 10.6596 60.3961 10.7684 60.9469 10.9907C61.4977 11.2129 61.9981 11.544 62.4179 11.9641C63.3368 12.8056 63.784 13.9368 63.784 15.3283C63.784 16.7198 63.3406 17.8509 62.4179 18.7245C61.5302 19.5651 60.45 19.9858 59.2123 19.9858C58.6264 19.9952 58.0445 19.8885 57.5 19.672C56.9555 19.4556 56.4592 19.1335 56.0396 18.7245ZM73.8519 23.35V1.15375H69.8519V23.35H73.8519ZM86.7623 7.30658V16.1632C86.7623 18.2971 85.6302 19.7122 83.4755 19.7122C81.284 19.7122 80.1821 18.299 80.1821 16.1632V7.30658H76.1745V16.8424C76.1745 20.5368 78.4604 23.8028 83.4755 23.8028H83.5066C88.4906 23.8028 90.7726 20.4641 90.7726 16.8424V7.30658H86.7623ZM46.3849 7.30658L42.3849 18.1745L38.3849 7.30658H34.1311L40.5141 23.3509H44.2613L50.6434 7.30658H46.3849ZM34.15 14.8754C34.15 12.5471 33.4208 10.6387 31.9915 9.1179C30.5623 7.59714 28.7236 6.85375 26.4689 6.85375C24.1519 6.85375 22.1821 7.66318 20.5632 9.24714C18.9745 10.833 18.183 12.8377 18.183 15.3283C18.183 17.8188 18.9764 19.8575 20.5321 21.4415C22.1208 23.0273 24.0255 23.8028 26.2792 23.8028C29.7415 23.8028 32.1849 22.25 33.6745 19.1122L30.6915 17.3651C29.7094 19.3377 28.2783 20.3085 26.3425 20.3085C23.9623 20.3085 22.2792 18.7556 22.0245 16.2981H34.1491V14.8745L34.15 14.8754ZM26.3396 9.95846C28.5934 9.95846 30.0868 11.2519 30.467 13.3226H22.0226C22.6274 11.4141 24.2764 9.95846 26.3406 9.95846H26.3396ZM18.1821 23.35L12.8151 13.7764C16.2104 12.5151 17.8934 10.316 17.8934 7.11318C17.8972 3.19903 14.8472 0.70752 9.99057 0.70752H0.5V23.35H4.69057V14.1641H8.24717L13.3887 23.3509L18.1821 23.35ZM9.99057 4.45941C12.467 4.45941 13.7057 5.46224 13.7057 7.43488C13.7057 9.40752 12.466 10.4104 9.99057 10.4104H4.69057V4.45941H9.99057ZM97.5538 23.8028C94.9792 23.8028 92.8915 21.6745 92.8915 19.0481V2.97167H96.8915V7.31224H100.322V10.6113H96.8915V18.7858C96.8915 19.5556 97.5038 20.1792 98.2604 20.1792H100.322V23.8028H97.5538Z" fill="#666666"/>
</g>
<defs>
<clipPath id="clip0_2576_78">
<rect width="100" height="23.5849" fill="white" transform="translate(0.5 0.70752)"/>
</clipPath>
</defs>
</svg>
