<svg width="101" height="19" viewBox="0 0 101 19" fill="none" xmlns="http://www.w3.org/2000/svg">
<g clip-path="url(#clip0_2576_82)">
<path d="M76.5612 1.68286V3.63844H78.4713C79.3052 3.63844 79.8532 4.16462 80.1653 4.50448C80.4154 4.7844 85.9155 11.0206 86.0471 11.1844C86.1794 11.3486 86.1794 11.3504 86.1794 11.4546V14.5446C86.179 14.6863 86.1649 14.8276 86.1372 14.9666C86.0981 15.0563 86.0399 15.1364 85.9668 15.2013C85.8936 15.2663 85.8072 15.3146 85.7135 15.3428C85.533 15.3654 85.3512 15.3768 85.1693 15.3767L83.2574 15.3744V17.3302H93.9811V15.3744H91.9632C91.7825 15.3753 91.602 15.3639 91.4229 15.3401C91.3293 15.3122 91.2431 15.264 91.1702 15.1991C91.0974 15.1341 91.0397 15.0539 91.0012 14.9642C90.9731 14.8253 90.9585 14.684 90.9575 14.5423V11.454C90.9456 11.3525 90.9711 11.2502 91.0293 11.1661L96.979 4.3784C97.5253 3.77014 97.8093 3.63815 98.5254 3.63815H100.499V1.68226H91.6614V3.63402H92.9952C93.0667 3.62969 93.138 3.64599 93.2005 3.68098C93.263 3.71598 93.3142 3.76819 93.3479 3.83142C93.3816 3.89465 93.3965 3.96624 93.3907 4.03766C93.3849 4.10908 93.3587 4.17733 93.3153 4.2343C93.2872 4.27417 89.6152 8.59223 89.5691 8.63416C89.5231 8.67609 89.4936 8.66605 89.4593 8.62029C89.4254 8.57422 85.7973 4.2343 85.7973 4.2343C85.5413 3.92013 85.7412 3.63432 86.0415 3.63432H87.3413V1.68256L76.5612 1.68286Z" fill="#666666"/>
<path d="M50.2595 1.68289V3.63847H51.9712C53.2072 3.63847 53.2914 4.32676 53.2914 4.92675V14.0808C53.2914 14.6285 53.3233 15.3806 52.5355 15.3806H50.4231V17.3344H59.4413V15.3806H57.2415C56.3634 15.3806 56.3232 14.979 56.3135 14.1248V6.28265L68.6993 17.3347H71.8493L71.683 4.85264C71.6993 3.94054 71.7551 3.63671 72.6991 3.63671H74.673V1.68289H65.4731V3.63671H67.4934C68.4214 3.63671 68.5771 3.99457 68.5889 4.85264L68.6993 11.3847L57.9472 1.68289H50.2595Z" fill="#666666"/>
<path d="M9.64991 0.69873C7.71204 0.69873 5.51021 1.0628 3.64999 1.89872C1.91379 2.67469 0.500013 3.92075 0.500013 5.98648C0.497356 7.0685 0.908864 8.1105 1.65011 8.89875C2.15207 9.36262 2.962 10.1507 5.07822 10.6146C6.02397 10.8148 8.046 11.1366 10.0601 11.3486C12.0738 11.5606 14.0262 11.7487 14.8258 11.9628C15.4621 12.1246 16.5318 12.3449 16.5318 13.5449C16.5318 14.7449 15.406 15.1045 15.2099 15.1827C15.0141 15.2607 13.6618 15.8808 11.2338 15.8808C9.62512 15.8361 8.03111 15.5619 6.49996 15.0667C5.59406 14.7425 4.64416 14.3167 3.75805 13.2345C3.40044 12.7251 3.20202 12.1209 3.18789 11.4986H0.988103V17.6586H3.43207V16.8248C3.43173 16.7629 3.44786 16.7021 3.47882 16.6486C3.50977 16.595 3.55443 16.5507 3.6082 16.5202C3.66196 16.4896 3.72291 16.4739 3.78474 16.4747C3.84657 16.4755 3.90707 16.4928 3.96002 16.5248C5.11139 17.0258 6.30901 17.4129 7.53577 17.6807C8.81991 17.9486 9.64992 18.1428 11.2459 18.1428C12.9299 18.1748 14.6083 17.9378 16.2177 17.4407C17.2864 17.1477 18.2891 16.6528 19.1716 15.9826C19.6679 15.6014 20.0691 15.1102 20.3437 14.5477C20.6182 13.9852 20.7585 13.3667 20.7537 12.7408C20.7622 11.5517 20.3034 10.4067 19.476 9.55249C19.0159 9.10605 18.4828 8.74156 17.8998 8.47474C17.2732 8.19163 16.6226 7.96475 15.9558 7.79679C14.6879 7.48675 11.84 7.09877 10.4782 6.96265C9.04994 6.81501 6.5717 6.60861 5.58195 6.30271C5.28195 6.20852 4.66986 5.91886 4.66986 5.20873C4.66986 4.70293 4.94977 4.27478 5.50193 3.92872C6.37978 3.37892 8.152 3.0367 9.99981 3.0367C11.7886 3.01502 13.5628 3.36147 15.212 4.05451C15.655 4.24762 16.0716 4.49637 16.4518 4.79476C17.0716 5.32415 17.5008 6.04208 17.6737 6.83863H19.6479V1.47678H17.4481V2.09862C17.4481 2.29881 17.2479 2.56279 16.8478 2.34488C15.8557 1.82874 13.068 0.712904 9.64991 0.69873Z" fill="#666666"/>
<path d="M36.1267 0.700235C32.6608 0.700235 28.9805 1.90022 26.9006 3.78996C26.1077 4.51194 25.4747 5.39194 25.0424 6.37333C24.6101 7.35472 24.388 8.41575 24.3905 9.48814C24.3781 10.5649 24.5956 11.6319 25.0284 12.618C25.4612 13.604 26.0994 14.4864 26.9003 15.2061C29.1406 17.2199 32.5008 18.3 36.1267 18.3C39.7586 18.3 43.1905 17.232 45.3767 15.2061C46.154 14.4695 46.774 13.5831 47.1995 12.6004C47.6249 11.6177 47.847 10.559 47.8523 9.48814C47.8631 8.41839 47.6481 7.35841 47.2216 6.37733C46.795 5.39625 46.1664 4.51613 45.3767 3.7944C43.0305 1.66637 39.9606 0.700235 36.1267 0.700235ZM36.1267 2.98801C38.0227 2.98801 39.8486 3.67009 41.0784 4.88041C42.2684 6.05235 42.8903 7.70824 42.8903 9.48017C42.8903 11.3363 42.3245 12.8404 41.0787 14.0802C39.8327 15.3204 38.0487 15.9841 36.1267 15.9841C34.2187 15.9841 32.3966 15.3062 31.1667 14.0802C30.5785 13.4698 30.1166 12.7492 29.8077 11.9598C29.4988 11.1704 29.349 10.3277 29.3668 9.48017C29.3668 7.71621 29.9806 6.05442 31.1667 4.88041C32.3966 3.66419 34.2308 2.98801 36.1267 2.98801Z" fill="#666666"/>
</g>
<defs>
<clipPath id="clip0_2576_82">
<rect width="100" height="17.6" fill="white" transform="translate(0.5 0.700195)"/>
</clipPath>
</defs>
</svg>
