<svg width="88" height="87" viewBox="0 0 88 87" fill="none" xmlns="http://www.w3.org/2000/svg">
<path fill-rule="evenodd" clip-rule="evenodd" d="M4.08248 83.3885H5.33975V79.4723H6.75404V78.4758H2.67578V79.4723H4.08248V83.3885Z" fill="#666666"/>
<path fill-rule="evenodd" clip-rule="evenodd" d="M7.08186 83.3885H8.26444V81.4475C8.26444 80.8537 8.4341 80.5726 8.86459 80.5726C9.33686 80.5726 9.36345 80.8942 9.36345 81.564V83.3885H10.5524V80.8942C10.5524 80.0877 10.1434 79.6648 9.38497 79.6648C8.89244 79.6648 8.54426 79.842 8.27078 80.2307V78.4758H7.08186V83.3885Z" fill="#666666"/>
<path fill-rule="evenodd" clip-rule="evenodd" d="M13.3328 82.2477C13.2518 82.5073 13.0467 82.644 12.7251 82.644C12.3009 82.644 12.0756 82.3705 12.0756 81.8577H14.5293C14.5357 81.7894 14.5357 81.7147 14.5357 81.6463C14.5357 80.3814 13.8254 79.6369 12.6846 79.6369C11.5767 79.6369 10.8601 80.3751 10.8601 81.5906C10.8601 82.7731 11.564 83.4986 12.6846 83.4986C13.6139 83.4986 14.2622 83.0403 14.4749 82.2477H13.3328ZM12.0414 81.1879C12.0895 80.703 12.3351 80.4434 12.7188 80.4434C13.1277 80.4434 13.3886 80.7169 13.3949 81.1879H12.0414Z" fill="#666666"/>
<path fill-rule="evenodd" clip-rule="evenodd" d="M18.0354 78.4759V81.393C18.0354 82.1236 18.1519 82.6225 18.5609 82.9985C18.9445 83.3467 19.4561 83.5265 20.1056 83.5265C20.7551 83.5265 21.2667 83.3467 21.6503 82.9985C22.0605 82.6225 22.1694 82.1236 22.1694 81.393V78.4759H20.9185V81.5437C20.9185 82.192 20.707 82.4794 20.0993 82.4794C19.4839 82.4794 19.2725 82.192 19.2725 81.5437V78.4759H18.0354Z" fill="#666666"/>
<path fill-rule="evenodd" clip-rule="evenodd" d="M22.9466 83.3885H24.1634V81.9058C24.1634 81.5095 24.1431 80.9626 24.095 80.2788C24.4027 80.8663 24.6686 81.3525 24.8876 81.7273L25.8512 83.3885H27.211V78.4758H25.9955V79.7319C25.9955 80.1421 26.0082 80.7777 26.0499 81.6323C25.8106 81.1335 25.5372 80.6144 25.2358 80.0877L24.3065 78.4758H22.9466V83.3885Z" fill="#666666"/>
<path fill-rule="evenodd" clip-rule="evenodd" d="M30.8943 83.3885H32.1452V81.55H32.986C33.4164 81.55 33.6279 81.7146 33.6696 82.1033C33.7165 82.5414 33.6558 82.9783 33.8052 83.3885H35.1245V83.2176C34.8852 83.0947 34.9472 82.7466 34.913 82.1451C34.8788 81.564 34.8168 81.25 34.2913 81.0448C34.8168 80.7777 35.0624 80.3953 35.0624 79.842C35.0624 78.8924 34.4749 78.4758 33.2455 78.4758H30.8943V83.3885ZM32.1452 80.5802V79.4596H33.1151C33.5874 79.4596 33.8191 79.6293 33.8191 79.9927C33.8191 80.4017 33.5874 80.5802 33.0809 80.5802H32.1452Z" fill="#666666"/>
<path fill-rule="evenodd" clip-rule="evenodd" d="M37.9656 82.2477C37.8845 82.5073 37.6795 82.644 37.3578 82.644C36.935 82.644 36.7096 82.3705 36.7096 81.8577H39.1621C39.1684 81.7894 39.1684 81.7147 39.1684 81.6463C39.1684 80.3814 38.4581 79.6369 37.3173 79.6369C36.2094 79.6369 35.4928 80.3751 35.4928 81.5906C35.4928 82.7731 36.1968 83.4986 37.3173 83.4986C38.2467 83.4986 38.8962 83.0403 39.1076 82.2477H37.9656ZM36.6754 81.1879C36.7222 80.703 36.9691 80.4434 37.3515 80.4434C37.7617 80.4434 38.0213 80.7169 38.0276 81.1879H36.6754Z" fill="#666666"/>
<path fill-rule="evenodd" clip-rule="evenodd" d="M39.6737 83.3885H40.8626V80.5802H41.4501V79.8483H40.8626V79.7458C40.8626 79.3634 40.9386 79.2406 41.2792 79.2406C41.3273 79.2406 41.3894 79.2406 41.4501 79.2469V78.4543C41.2387 78.4404 41.0614 78.4341 40.931 78.4341C40.0219 78.4341 39.6674 78.762 39.6674 79.609C39.6674 79.685 39.6674 79.766 39.6737 79.8483H39.1546V80.5802H39.6737V83.3885Z" fill="#666666"/>
<path fill-rule="evenodd" clip-rule="evenodd" d="M45.3587 79.7597H44.1698V81.7007C44.1698 82.2945 44.0052 82.5756 43.5747 82.5756C43.1721 82.5756 43.0759 82.3287 43.0759 81.7894V79.7597H41.887V82.254C41.887 83.0669 42.2972 83.4784 43.0961 83.4784C43.5608 83.4784 43.909 83.2923 44.1964 82.8896V83.3885H45.3587V79.7597Z" fill="#666666"/>
<path fill-rule="evenodd" clip-rule="evenodd" d="M47.0654 81.5564C47.0654 80.9221 47.3186 80.5865 47.7693 80.5865C48.2201 80.5865 48.4594 80.9145 48.4594 81.5564C48.4594 82.1515 48.1935 82.4857 47.7491 82.4857C47.3325 82.4857 47.0654 82.1451 47.0654 81.5564ZM46.0411 83.6898C46.15 84.4824 46.7172 84.8446 47.8098 84.8446C48.5822 84.8446 49.1292 84.5989 49.409 84.1621C49.6217 83.8342 49.628 83.3758 49.628 82.7478V79.7597H48.5138V80.2447C48.2201 79.842 47.8656 79.6648 47.3667 79.6648C46.4716 79.6648 45.8359 80.4156 45.8359 81.564C45.8359 82.6908 46.4842 83.424 47.3528 83.424C47.844 83.4164 48.2138 83.2239 48.4733 82.8352V83.2176C48.4733 83.7721 48.3226 84.0114 47.7769 84.0114C47.4692 84.0114 47.2908 83.9089 47.23 83.6898H46.0411Z" fill="#666666"/>
<path fill-rule="evenodd" clip-rule="evenodd" d="M52.5721 82.2477C52.491 82.5073 52.2859 82.644 51.9643 82.644C51.5401 82.644 51.3148 82.3705 51.3148 81.8577H53.7686C53.7749 81.7894 53.7749 81.7147 53.7749 81.6463C53.7749 80.3814 53.0646 79.6369 51.9238 79.6369C50.8159 79.6369 50.0993 80.3751 50.0993 81.5906C50.0993 82.7731 50.8033 83.4986 51.9238 83.4986C52.8531 83.4986 53.5014 83.0403 53.7141 82.2477H52.5721ZM51.2806 81.1879C51.3287 80.703 51.5743 80.4434 51.958 80.4434C52.3669 80.4434 52.6278 80.7169 52.6341 81.1879H51.2806Z" fill="#666666"/>
<path fill-rule="evenodd" clip-rule="evenodd" d="M56.5007 82.2477C56.4184 82.5073 56.2132 82.644 55.8916 82.644C55.4688 82.644 55.2434 82.3705 55.2434 81.8577H57.6959C57.7035 81.7894 57.7035 81.7147 57.7035 81.6463C57.7035 80.3814 56.9919 79.6369 55.8511 79.6369C54.7445 79.6369 54.0266 80.3751 54.0266 81.5906C54.0266 82.7731 54.7306 83.4986 55.8511 83.4986C56.7805 83.4986 57.43 83.0403 57.6414 82.2477H56.5007ZM55.2092 81.1879C55.2573 80.703 55.5029 80.4434 55.8853 80.4434C56.2955 80.4434 56.5551 80.7169 56.5627 81.1879H55.2092Z" fill="#666666"/>
<path fill-rule="evenodd" clip-rule="evenodd" d="M62.3845 78.4758L60.6145 83.3885H61.9199L62.1997 82.4857H63.8406L64.1407 83.3885H65.4942L63.7583 78.4758H62.3845ZM62.501 81.4677L63.0265 79.7736L63.5734 81.4677H62.501Z" fill="#666666"/>
<path fill-rule="evenodd" clip-rule="evenodd" d="M66.7907 81.5564C66.7907 80.9221 67.044 80.5865 67.4947 80.5865C67.9455 80.5865 68.1848 80.9145 68.1848 81.5564C68.1848 82.1515 67.9189 82.4857 67.4744 82.4857C67.0579 82.4857 66.7907 82.1451 66.7907 81.5564ZM65.7664 83.6898C65.8753 84.4824 66.4426 84.8446 67.5365 84.8446C68.3088 84.8446 68.8545 84.5989 69.1344 84.1621C69.3471 83.8342 69.3534 83.3758 69.3534 82.7478V79.7597H68.2392V80.2447C67.9454 79.842 67.5909 79.6648 67.0921 79.6648C66.1969 79.6648 65.5613 80.4156 65.5613 81.564C65.5613 82.6908 66.2108 83.424 67.0782 83.424C67.5707 83.4164 67.9391 83.2239 68.1987 82.8352V83.2176C68.1987 83.7721 68.048 84.0114 67.5023 84.0114C67.1946 84.0114 67.0161 83.9089 66.9553 83.6898H65.7664Z" fill="#666666"/>
<path fill-rule="evenodd" clip-rule="evenodd" d="M72.2982 82.2477C72.216 82.5073 72.0108 82.644 71.6893 82.644C71.2664 82.644 71.041 82.3705 71.041 81.8577H73.4935C73.4998 81.7894 73.4998 81.7147 73.4998 81.6463C73.4998 80.3814 72.7895 79.6369 71.6487 79.6369C70.5408 79.6369 69.8242 80.3751 69.8242 81.5906C69.8242 82.7731 70.5282 83.4986 71.6487 83.4986C72.5781 83.4986 73.2263 83.0403 73.439 82.2477H72.2982ZM71.0055 81.1879C71.0536 80.703 71.3005 80.4434 71.6829 80.4434C72.0931 80.4434 72.3527 80.7169 72.359 81.1879H71.0055Z" fill="#666666"/>
<path fill-rule="evenodd" clip-rule="evenodd" d="M73.9572 83.3885H75.1398V81.4475C75.1398 80.8537 75.3107 80.5726 75.7412 80.5726C76.2122 80.5726 76.24 80.8942 76.24 81.564V83.3885H77.4289V81.0309C77.4289 80.1016 77.101 79.6711 76.2198 79.6711C75.7209 79.6711 75.3651 79.8623 75.1195 80.2586V79.7597H73.9572V83.3885Z" fill="#666666"/>
<path fill-rule="evenodd" clip-rule="evenodd" d="M81.4389 82.0426H80.2702C80.2019 82.3971 80.0183 82.568 79.7106 82.568C79.294 82.568 79.0953 82.2401 79.0953 81.5779C79.0953 80.8942 79.3143 80.5384 79.7245 80.5384C80.0044 80.5384 80.1816 80.7093 80.25 81.0449H81.4465C81.3705 80.1624 80.7286 79.6293 79.7308 79.6293C78.5964 79.6293 77.8722 80.3751 77.8722 81.6121C77.8722 82.7466 78.5825 83.505 79.6688 83.505C80.6665 83.505 81.3237 82.9643 81.4389 82.0426Z" fill="#666666"/>
<path fill-rule="evenodd" clip-rule="evenodd" d="M83.8772 83.7924L85.3256 79.7597H84.062L83.3656 82.2338L82.6819 79.7597H81.4031L82.6275 82.9719C82.7301 83.2315 82.8047 83.4163 82.8047 83.5607C82.8047 83.8608 82.6199 83.9291 82.2312 83.9291H81.9982V84.8724H82.3122C82.7161 84.8724 83.0301 84.8724 83.2631 84.7698C83.5429 84.647 83.686 84.3191 83.8772 83.7924Z" fill="#666666"/>
<path fill-rule="evenodd" clip-rule="evenodd" d="M33.6508 12.8289C32.4037 14.1571 30.393 17.3351 31.6794 19.9902C34.375 20.9955 34.1737 11.5007 37.5138 11.6615C39.1231 13.191 36.9909 17.6567 36.3464 19.6281C35.5019 22.0819 34.8587 27.1502 33.2887 29.6445C32.0023 31.6969 32.9671 38.134 32.5657 40.3865C31.4389 41.4728 28.4622 40.7081 27.1745 40.5068C27.1745 37.9327 26.8529 35.9208 26.4503 31.8577C26.3692 31.0525 25.5247 18.4607 26.2084 16.9325C27.6569 13.7544 35.5019 7.71999 36.5883 6.5526C37.5531 5.54729 40.8526 2.12744 42.1403 2.12744C43.0646 2.73139 42.5024 4.17986 42.3011 4.74203C41.0134 7.92005 35.5019 11.0588 33.6508 12.8289Z" fill="#666666"/>
<path fill-rule="evenodd" clip-rule="evenodd" d="M52.8417 12.8289C54.0875 14.1571 56.0994 17.3351 54.8118 19.9902C52.1174 20.9955 52.3175 11.5007 48.9787 11.6615C47.3694 13.191 49.5016 17.6567 50.146 19.6281C50.9906 22.0819 51.6338 27.1502 53.2038 29.6445C54.4902 31.6969 53.5254 38.134 53.9268 40.3865C55.0536 41.4728 58.0303 40.7081 59.318 40.5068C59.318 37.9327 59.6396 35.9208 60.0422 31.8577C60.1233 31.0525 60.9678 18.4607 60.2841 16.9325C58.8356 13.7544 50.9906 7.71999 49.9042 6.5526C48.9382 5.54729 45.6399 2.12744 44.3522 2.12744C43.4266 2.73139 43.99 4.17986 44.1914 4.74203C45.479 7.92005 50.9906 11.0588 52.8417 12.8289Z" fill="#666666"/>
<path fill-rule="evenodd" clip-rule="evenodd" d="M64.1051 8.52399C64.7888 9.20771 66.3575 9.65086 67.4046 11.0993C67.8465 10.2941 66.7602 8.40371 65.4725 7.31736C64.5482 6.51209 62.6971 5.26494 62.1337 5.10414C61.731 6.0702 63.22 7.51868 64.1051 8.52399Z" fill="#666666"/>
<path fill-rule="evenodd" clip-rule="evenodd" d="M66.2781 13.6734C67.4442 14.8003 68.7319 15.2422 70.3817 17.2541C71.0654 14.8408 70.9046 12.7086 70.583 11.2601C70.0196 9.36851 69.0535 7.27685 67.4442 6.59313C67.8064 7.67948 68.3293 9.16719 68.4508 11.1791C69.1345 13.9152 69.5372 13.995 69.3751 14.3976C69.2143 14.3976 68.3293 12.9492 67.2037 11.8236C65.916 10.4954 64.2662 10.2143 63.1799 9.44955C63.3407 9.97247 64.3067 11.6615 66.2781 13.6734Z" fill="#666666"/>
<path fill-rule="evenodd" clip-rule="evenodd" d="M72.0707 25.0586C73.6799 22.2022 73.8407 20.1105 73.9622 17.6567C73.8812 15.9664 73.0367 12.0641 71.8301 11.5007C72.1922 15.0408 71.2261 15.3637 71.6288 18.2999C71.6288 18.4607 72.0314 21.4779 72.0314 21.6387C71.5477 21.5589 71.9909 18.8633 66.3578 14.9611C67.5657 17.0933 67.0023 17.7365 69.2142 20.5929C71.8301 23.1277 72.1922 25.6625 72.0707 25.0586Z" fill="#666666"/>
<path fill-rule="evenodd" clip-rule="evenodd" d="M69.818 27.7947C70.9841 29.5242 70.784 30.3687 71.0651 31.2133C73.9215 29.5647 77.14 23.0074 75.9334 19.7484C75.2092 22.2427 74.1633 22.7656 73.4391 24.818C72.1514 27.915 72.3528 28.8405 71.5475 29.5647C71.7083 27.9555 71.1448 26.0639 70.6219 24.6559C69.8584 23.4493 69.214 21.921 68.6518 21.3576C68.0479 23.6506 68.4898 25.5017 69.818 27.7947Z" fill="#666666"/>
<path fill-rule="evenodd" clip-rule="evenodd" d="M67.2427 33.386C67.2427 35.8803 67.7263 37.0071 67.9277 38.8582C72.7947 37.249 75.37 31.6564 75.37 28.881C73.8811 32.2604 71.7084 32.2199 68.852 37.0071C68.6114 35.1966 69.3356 36.564 69.4154 33.1454C69.3356 29.5647 68.6114 29.4432 68.4898 27.2312C67.5655 28.196 67.2427 32.1388 67.2427 33.386Z" fill="#666666"/>
<path fill-rule="evenodd" clip-rule="evenodd" d="M63.1797 40.5068C62.8176 42.3579 62.6568 44.5306 62.3757 46.1398C65.1511 45.0927 65.8348 45.898 69.1749 43.8063C70.7031 42.9618 73.4393 39.5014 73.2785 37.0477C69.9789 40.7081 69.3749 40.3054 67.8062 41.6336C66.3184 42.8403 65.1105 44.6103 64.0255 44.3698C63.9444 43.3632 66.4793 41.231 66.1577 35.0763C65.4727 35.76 63.6633 38.5759 63.1797 40.5068Z" fill="#666666"/>
<path fill-rule="evenodd" clip-rule="evenodd" d="M57.6291 45.0927C56.7833 46.3399 56.9847 46.8641 54.7322 49.4381C55.2956 49.68 58.4331 50.484 60.5653 50.565C61.9327 50.565 66.8809 49.2773 68.5306 45.898C65.6742 47.4262 65.6349 47.0249 61.853 47.8694C59.1574 48.4721 57.2265 49.3584 56.4617 49.2773C56.6225 48.8747 58.7547 48.0302 60.1627 46.2196C61.6112 44.2887 61.2896 42.116 62.5772 40.5068C61.6922 40.2662 58.3128 44.2077 57.6291 45.0927Z" fill="#666666"/>
<path fill-rule="evenodd" clip-rule="evenodd" d="M36.2258 56.7197L35.4206 56.2778C35.4206 56.2778 40.6105 49.9205 49.5824 50.4042C58.553 50.8866 57.9503 53.0188 62.7781 52.6567C63.301 52.6162 62.335 53.3404 62.335 53.3404C62.335 53.3404 57.6679 55.151 51.8753 53.1796C46.0827 51.2082 42.3413 50.0016 36.2258 56.7197Z" fill="#666666"/>
<path fill-rule="evenodd" clip-rule="evenodd" d="M22.3873 8.52399C21.7036 9.20771 20.1335 9.65086 19.0877 11.0993C18.6458 10.2941 19.7322 8.40371 21.0198 7.31736C21.9441 6.51209 23.7952 5.26494 24.3586 5.10414C24.76 6.0702 23.2723 7.51868 22.3873 8.52399Z" fill="#666666"/>
<path fill-rule="evenodd" clip-rule="evenodd" d="M20.2146 13.6734C19.0484 14.8003 17.7608 15.2422 16.111 17.2541C15.4273 14.8408 15.5881 12.7086 15.9097 11.2601C16.4731 9.36851 17.4392 7.27685 19.0484 6.59313C18.6863 7.67948 18.1634 9.16719 18.0418 11.1791C17.3581 13.9152 16.9555 13.995 17.1163 14.3976C17.2784 14.3976 18.1634 12.9492 19.289 11.8236C20.5767 10.4954 22.2264 10.2143 23.3128 9.44955C23.152 9.97247 22.1859 11.6615 20.2146 13.6734Z" fill="#666666"/>
<path fill-rule="evenodd" clip-rule="evenodd" d="M14.422 25.0586C12.8128 22.2022 12.652 20.1105 12.5304 17.6567C12.6114 15.9664 13.4559 12.0641 14.6626 11.5007C14.3005 15.0408 15.2665 15.3637 14.8639 18.2999C14.8639 18.4607 14.4613 21.4779 14.4613 21.6387C14.9449 21.5589 14.5018 18.8633 20.1336 14.9611C18.9269 17.0933 19.4904 17.7365 17.2784 20.5929C14.6626 23.1277 14.3005 25.6625 14.422 25.0586Z" fill="#666666"/>
<path fill-rule="evenodd" clip-rule="evenodd" d="M16.6744 27.7947C15.507 29.5242 15.7084 30.3687 15.4273 31.2133C12.5709 29.5647 9.35232 23.0074 10.559 19.7484C11.2832 22.2427 12.329 22.7656 13.0533 24.818C14.3409 27.915 14.1396 28.8405 14.9449 29.5647C14.7841 27.9555 15.3462 26.0639 15.8692 24.6559C16.6339 23.4493 17.2784 21.921 17.8406 21.3576C18.4445 23.6506 18.0013 25.5017 16.6744 27.7947Z" fill="#666666"/>
<path fill-rule="evenodd" clip-rule="evenodd" d="M19.2483 33.386C19.2483 35.8803 18.7659 37.0071 18.5645 38.8582C13.6975 37.249 11.1222 31.6564 11.1222 28.881C12.6112 32.2604 14.7839 32.2199 17.639 37.0071C17.8808 35.1966 17.1566 36.564 17.0768 33.1454C17.1566 29.5647 17.8808 29.4432 18.0011 27.2312C18.9267 28.196 19.2483 32.1388 19.2483 33.386Z" fill="#666666"/>
<path fill-rule="evenodd" clip-rule="evenodd" d="M23.3127 40.5068C23.6748 42.3579 23.8356 44.5306 24.1167 46.1398C21.3413 45.0927 20.6575 45.898 17.3175 43.8063C15.7892 42.9618 13.0531 39.5014 13.2139 37.0477C16.5135 40.7081 17.1162 40.3054 18.6862 41.6336C20.1739 42.8403 21.3805 44.6103 22.4669 44.3698C22.5479 43.3632 20.0131 41.231 20.3347 35.0763C21.0197 35.76 22.829 38.5759 23.3127 40.5068Z" fill="#666666"/>
<path fill-rule="evenodd" clip-rule="evenodd" d="M28.8634 45.0927C29.7092 46.3399 29.5079 46.8641 31.7604 49.4381C31.1969 49.68 28.0594 50.484 25.9273 50.565C24.5598 50.565 19.6105 49.2773 17.962 45.898C20.8184 47.4262 20.8576 47.0249 24.6396 47.8694C27.3352 48.4721 29.2661 49.3584 30.0308 49.2773C29.87 48.8747 27.7379 48.0302 26.3299 46.2196C24.8814 44.2887 25.203 42.116 23.9154 40.5068C24.8004 40.2662 28.1797 44.2077 28.8634 45.0927Z" fill="#666666"/>
<path fill-rule="evenodd" clip-rule="evenodd" d="M50.4272 56.7197L51.2325 56.2778C51.2325 56.2778 46.0426 49.9205 37.0707 50.4042C28.1001 50.8866 28.7028 53.0188 23.875 52.6567C23.352 52.6162 24.3181 53.3404 24.3181 53.3404C24.3181 53.3404 28.9851 55.151 34.7777 53.1796C40.5703 51.2082 44.3118 50.0016 50.4272 56.7197Z" fill="#666666"/>
<path fill-rule="evenodd" clip-rule="evenodd" d="M40.3766 35.4764C38.4862 35.4764 38.585 34.7294 38.585 34.0051V21.2158C38.585 17.7162 41.0236 18.3417 41.7453 17.0527C42.3049 16.0537 41.3338 15.1915 40.8235 14.1191C40.4513 13.3366 40.4399 12.4174 40.8223 11.5817C41.2021 10.7473 42.2707 10.1662 43.2457 10.1662C44.2218 10.1662 45.2905 10.7473 45.6703 11.5817C46.0514 12.4174 46.0413 13.3366 45.6691 14.1191C45.1588 15.1915 44.1877 16.0537 44.7473 17.0527C45.469 18.3417 47.9076 17.7162 47.9076 21.2158V34.0051C47.9076 34.7294 48.0063 35.4764 46.1147 35.4764C45.8881 35.4599 45.6754 35.6904 45.6754 36.0867V40.9069H40.8172V36.0715C40.8172 36.0715 40.8653 35.4764 40.3766 35.4764Z" fill="#666666"/>
<path fill-rule="evenodd" clip-rule="evenodd" d="M2.79345 60.1497V70.2307C2.79345 74.1672 5.41691 76.3133 10.2713 76.3133C15.1257 76.3133 17.7061 74.1672 17.7061 70.2307V60.1497H12.6554V69.837C12.6554 71.564 12.0869 72.33 10.2713 72.33C8.45692 72.33 7.84409 71.564 7.84409 69.837V60.1497H2.79345Z" fill="#666666"/>
<path fill-rule="evenodd" clip-rule="evenodd" d="M20.0019 75.8727H24.7917V68.5037C24.7917 67.8694 24.7917 67.1477 24.66 66.3601C25.0095 67.4541 25.3374 68.2188 25.5779 68.6126L29.9955 75.8727H34.8056V60.1497H29.9955V67.563C29.9955 68.3062 30.0171 69.0279 30.1259 69.7053C29.7765 68.6126 29.4701 67.8694 29.208 67.4541L24.7917 60.1497H20.0019V75.8727Z" fill="#666666"/>
<path fill-rule="evenodd" clip-rule="evenodd" d="M36.7086 75.8727H41.7592V69.7711H46.4604V75.8727H51.5123V60.1497H46.4604V65.4852H41.7592V60.1497H36.7086V75.8727Z" fill="#666666"/>
<path fill-rule="evenodd" clip-rule="evenodd" d="M64.238 69.7711C64.0848 71.4551 63.1225 72.373 61.5703 72.373C59.5368 72.373 58.4644 70.8866 58.4644 68.0226C58.4644 65.1142 59.4495 63.6708 61.4386 63.6708C63.0567 63.6708 63.9531 64.5014 64.1063 66.098H68.9392C68.6328 62.0312 65.9435 59.7344 61.3727 59.7344C56.4538 59.7344 53.3707 62.8833 53.3707 68.0226C53.3707 73.1391 56.431 76.3133 61.4829 76.3133C66.0093 76.3133 68.7417 73.9038 69.0266 69.7711H64.238Z" fill="#666666"/>
<path fill-rule="evenodd" clip-rule="evenodd" d="M70.4916 75.8727H75.4777V70.4498H77.62C79.1723 70.4498 79.7636 71.0183 79.7636 72.6579V74.2317C79.7636 74.5166 79.8509 75.0636 80.0472 75.8727H85.1422V75.2814C84.7053 75.2383 84.7053 74.9319 84.6825 74.2545L84.5952 72.0679C84.5306 69.9243 83.7861 68.9405 82.0376 68.5683C83.7646 67.825 84.5737 66.6007 84.5737 64.6761C84.5737 61.3095 82.5187 60.1497 78.0138 60.1497H70.4916V75.8727ZM75.4777 66.9071V63.9544H77.6415C79.1723 63.9544 79.894 64.1735 79.894 65.4422C79.894 66.6222 79.2166 66.9071 77.7732 66.9071H75.4777Z" fill="#666666"/>
</svg>
